<svg id="bat" xmlns="http://www.w3.org/2000/svg" viewBox="0 0 366 265">
  <path d="M110.65,191.81c-17.07-9.4-44.8-26.7-48.61,13.34C46.12,187.4,22.1,178.47,9.12,206.22c-11.88-99.85,61-97.93,45.44-134.67,28.25.73,96.54,112.12,74.47,25.24,13.17,9.42,40.94,2.92,37.21-20.87,13.91,7.45,9.66,16.18,20.59,30.06,28-22.22,13.19-94.46,64.3-98.84-.47,7.09-12.16,10.21-11.56,21.55,37-10.89,78.54,3.49,105.43,36.72-65.4,1.51-22.53,48.29-44,53.72-22.84-7.56-29.83,1.44-36,31-36.43-37.38-49-4.4-52.18,36-8.22-9.27-10.83-7.81-8.75,17.18-3.26-7.13-29.88-23.7-19.85-.5C167.54,201.63,111.61,137.3,110.65,191.81Z">
    <animate  dur=".35s"
    repeatCount="indefinite"
    attributeName="d"
    values="M110.65,191.81c-17.07-9.4-44.8-26.7-48.61,13.34C46.12,187.4,22.1,178.47,9.12,206.22c-11.88-99.85,61-97.93,45.44-134.67,28.25.73,96.54,112.12,74.47,25.24,13.17,9.42,40.94,2.92,37.21-20.87,13.91,7.45,9.66,16.18,20.59,30.06,28-22.22,13.19-94.46,64.3-98.84-.47,7.09-12.16,10.21-11.56,21.55,37-10.89,78.54,3.49,105.43,36.72-65.4,1.51-22.53,48.29-44,53.72-22.84-7.56-29.83,1.44-36,31-36.43-37.38-49-4.4-52.18,36-8.22-9.27-10.83-7.81-8.75,17.18-3.26-7.13-29.88-23.7-19.85-.5C167.54,201.63,111.61,137.3,110.65,191.81Z;
   M162.15,177c-29.75,8.53-34.1,20.32-21.66,48.18-29-3.1-42.78,1.76-42.47,33.46-30.37-40.23-6.93-109.48-22-128.27,27.92-4.82,74.67,8.44,53.68-39.07,24.65,1.93,34.17.11,34.67-27,10.88,8,21.08,16.59,29.46,27.23,35.3-21.25,89.31-65.93,132.44-45.81-7.4,3.61-15.44,5.37-22.57,9.55,42.32,23.48,59.72,68.79,51.72,115.49-46.91-43.58-37.35-1-63.61-11.16-7.91-17.59-10.39-27.5-31.82-21.54-11.31-51-42.5,7.87-42.8,32.77-16.09-8.88-8.49,8.46-6.36,17.13-8.42-7.42-22.32-23.25-18.7.27C178.1,181,126.86,132.34,162.15,177Z;
    M163.23,161.92c-22.89,11.33-27.42,29.12-24,53.3-26.88-9.43-43.16-10-55.53,18.73-13.2-46.14,35-102.6,28.49-121.49,25,4.34,17-18.27.39-40,25,.8,38.46,5,40.38-24.5C163.24,57,176.55,64.46,185,75.11,202.69,72,301,95.42,311.9,107.77c-8.41.26-16.62-1.46-25-.58,32.3,39,27.89,82.86-.53,122.71-24.66-58.58-33.5-16.79-52.83-37,1-18.22,4.05-31.3-17.21-36,10.3-35.38-21.71-53.34-14.17-2-16-9.89-6,9.28-3.38,16.32C191,164.81,175.81,147,181,170.77,167.7,163.74,126.54,119.19,163.23,161.92Z"/>
  </path>
</svg>